<svg viewBox="0 0 310 90" width="100%" height="100%" xmlns="http://www.w3.org/2000/svg" role="img" aria-label="Rejoy Solar Power Pvt. Ltd. White">
  <defs>
    <clipPath id="rejoy-bolt-clip-white">
      <polygon points="208,0 152,41 184,41 126,90 158,48 132,48 188,0" />
    </clipPath>
  </defs>

  <g id="rejoy-brand-logo-white">
    <text x="0" y="56" fill="#FFFFFF" font-family="Montserrat, Poppins, 'Arial Black', sans-serif" font-weight="900" font-size="62" letter-spacing="-1.5px">REJ</text>

    <circle cx="162" cy="36" r="30" fill="#FCB813" />

    <polygon points="208,0 152,41 184,41 126,90 158,48 132,48 188,0" fill="#082C43" />

    <g clip-path="url(#rejoy-bolt-clip-white)">
      <line x1="110" y1="10" x2="220" y2="10" stroke="#FFFFFF" stroke-width="1.6" opacity="0.95" />
      <line x1="110" y1="20" x2="220" y2="20" stroke="#FFFFFF" stroke-width="1.6" opacity="0.95" />
      <line x1="110" y1="30" x2="220" y2="30" stroke="#FFFFFF" stroke-width="1.6" opacity="0.95" />
      <line x1="110" y1="40" x2="220" y2="40" stroke="#FFFFFF" stroke-width="1.6" opacity="0.95" />
      <line x1="110" y1="50" x2="220" y2="50" stroke="#FFFFFF" stroke-width="1.6" opacity="0.95" />
      <line x1="110" y1="60" x2="220" y2="60" stroke="#FFFFFF" stroke-width="1.6" opacity="0.95" />
      <line x1="110" y1="70" x2="220" y2="70" stroke="#FFFFFF" stroke-width="1.6" opacity="0.95" />
      <line x1="110" y1="80" x2="220" y2="80" stroke="#FFFFFF" stroke-width="1.6" opacity="0.95" />
      <line x1="194" y1="0" x2="140" y2="90" stroke="#FFFFFF" stroke-width="1.8" opacity="0.98" />
      <line x1="180" y1="0" x2="126" y2="90" stroke="#FFFFFF" stroke-width="1.8" opacity="0.98" />
    </g>

    <polygon points="208,0 152,41 184,41 126,90 158,48 132,48 188,0" fill="none" stroke="#FFFFFF" stroke-width="1.6" opacity="0.95" />

    <text x="204" y="56" fill="#FFFFFF" font-family="Montserrat, Poppins, 'Arial Black', sans-serif" font-weight="900" font-size="62">Y</text>

    <text x="1" y="76" fill="#FFFFFF" font-family="Montserrat, Poppins, 'Arial Black', sans-serif" font-weight="800" font-size="14.5" letter-spacing="0.2px">SOLAR POWER PVT.LTD</text>
  </g>
</svg>
